<svg xmlns="http://www.w3.org/2000/svg" width="100" height="100" viewBox="0 0 100 100"><circle cx="50" cy="50" r="42" fill="#00f0ff" fill-opacity=".12" stroke="#00f0ff" stroke-opacity=".4" stroke-width="2"/><circle cx="50" cy="50" r="39" fill="#0b0e14" stroke="#00f0ff" stroke-linejoin="round" stroke-width="3.5"/><circle cx="50" cy="50" r="32" fill="#00f0ff" fill-opacity=".15" stroke="#00f0ff" stroke-width="2.5"/><circle cx="50" cy="50" r="26" fill="none" stroke="#00f0ff" stroke-dasharray="3,2" stroke-width="1.5"/><path fill="#00f0ff" fill-opacity=".3" stroke="#00f0ff" stroke-width="2" d="M32 62h36l-2 5H34Z"/><path fill="#00f0ff" fill-opacity=".25" stroke="#00f0ff" stroke-linejoin="round" stroke-width="2.5" d="m33 62-2-19 11 10 8-17 8 17 11-10-2 19Z"/><circle cx="31" cy="41" r="3" fill="#00f0ff"/><circle cx="50" cy="34" r="3.5" fill="#00f0ff"/><circle cx="69" cy="41" r="3" fill="#00f0ff"/><path fill="#00f0ff" d="m50 46 4 6-4 6-4-6z"/><path stroke="#00f0ff" stroke-linecap="round" stroke-width="2" d="M50 9v6m0 70v6M9 50h6m70 0h6M21 21l4 4m54-4-4 4M21 79l4-4m54 4-4-4"/></svg>