<svg xmlns="http://www.w3.org/2000/svg" viewBox="0 0 100 100"><g stroke-linecap="round" stroke-linejoin="round"><path fill="#ff4d6d" fill-opacity=".15" stroke="#ff4d6d" stroke-width="3" d="M24 86h52c2 0 4-2 4-4v-5H20v5c0 2 2 4 4 4"/><path stroke="#ffe4e6" stroke-width="1.8" d="M26 81h48" opacity=".8"/><path fill="#ff4d6d" fill-opacity=".08" stroke="#ff4d6d" stroke-width="3" d="M32 77c4-19 8-29 10-33h16c2 4 6 14 10 33Z"/><path fill="none" stroke="#ffe4e6" stroke-width="1.8" d="M41 73c3-15 5-22 6-27h6c1 5 3 12 6 27" opacity=".85"/><path fill="#ff4d6d" fill-opacity=".3" stroke="#ff4d6d" stroke-width="2.5" d="M35 44h30l-3-4H38Z"/><circle cx="50" cy="25" r="14" fill="#ff4d6d" fill-opacity=".12" stroke="#ff4d6d" stroke-width="3.2"/><circle cx="50" cy="25" r="8" fill="none" stroke="#ffe4e6" stroke-width="1.8" opacity=".85"/><circle cx="50" cy="25" r="3" fill="#ff4d6d" stroke="#ff4d6d" stroke-width="1.5"/></g></svg>