<svg xmlns="http://www.w3.org/2000/svg" viewBox="0 0 100 100"><g stroke-linecap="round" stroke-linejoin="round"><path fill="#00f0ff" fill-opacity=".15" stroke="#00f0ff" stroke-width="3" d="M22 86h56c2 0 4-2 4-4v-5H18v5c0 2 2 4 4 4"/><path stroke="#e0f2fe" stroke-width="1.8" d="M24 81h52" opacity=".8"/><path fill="#00f0ff" fill-opacity=".08" stroke="#00f0ff" stroke-width="3" d="m27 77 4-34h38l4 34Z"/><path stroke="#e0f2fe" stroke-width="1.8" d="m38 73 3-27m21 27-3-27" opacity=".85"/><rect width="6" height="14" x="47" y="53" fill="#00f0ff" fill-opacity=".35" stroke="#00f0ff" stroke-width="2" rx="2"/><path fill="#00f0ff" fill-opacity=".25" stroke="#00f0ff" stroke-width="2.5" d="M22 43h56l-2-5H24Z"/><path fill="#00f0ff" fill-opacity=".12" stroke="#00f0ff" stroke-width="3" d="M24 38V18h12v9h9v-9h10v9h9v-9h12v20Z"/><path stroke="#e0f2fe" stroke-width="1.8" d="M30 21v14m20-6v6m20-14v14" opacity=".85"/></g></svg>